<svg width="161" height="62" viewBox="0 0 161 62" fill="none" xmlns="http://www.w3.org/2000/svg">
<path fill-rule="evenodd" clip-rule="evenodd" d="M9.51683 6.37696H36.6066L24.7213 28.7212H8.08197V28.5964C3.50732 27.7878 0 23.1497 0 17.5491C0 11.9485 3.50732 7.31036 8.08197 6.5018V6.37696H9.49957C9.50244 6.37695 9.50532 6.37695 9.5082 6.37695C9.51107 6.37695 9.51395 6.37695 9.51683 6.37696Z" fill="#FE357F" fill-opacity="0.85"/>
<path fill-rule="evenodd" clip-rule="evenodd" d="M27.0922 41.082H0.000869751L11.8861 18.7378H28.5255V18.8626C33.1001 19.6712 36.6074 24.3093 36.6074 29.9099C36.6074 35.5105 33.1001 40.1486 28.5255 40.9572V41.082H27.1063C27.1039 41.082 27.1016 41.082 27.0992 41.082C27.0969 41.082 27.0945 41.082 27.0922 41.082Z" fill="#38337D" fill-opacity="0.85"/>
<path d="M61.7243 7.39934C64.6452 7.39934 66.9576 8.37298 68.6615 10.3203C70.4059 12.227 71.2782 15.5739 71.2782 20.3609C71.2782 23.9309 70.9333 26.8518 70.2437 29.1237C69.554 31.3549 68.7629 32.8357 67.8704 33.5659C66.9779 34.2961 65.416 34.8844 63.1848 35.3306C60.9941 35.7769 58.7223 36 56.3693 36C55.6797 36 54.5235 35.9594 52.9007 35.8783V44.5193L42.495 44.9453V8.00787H51.0143L52.0488 12.3284C53.1036 10.8274 54.4423 9.6306 56.065 8.7381C57.7283 7.84559 59.6148 7.39934 61.7243 7.39934ZM59.2902 28.576C59.7365 28.2515 60.061 27.3387 60.2639 25.8376C60.4667 24.296 60.5681 22.8356 60.5681 21.4563C60.5681 19.1844 60.2842 17.5009 59.7162 16.4055C59.1482 15.3102 58.0123 14.7625 56.3085 14.7625C55.0914 14.7625 53.9555 14.8842 52.9007 15.1276V28.6369L54.6046 28.8194C55.132 28.86 55.8825 28.8803 56.8561 28.8803C58.2355 28.8803 59.0468 28.7788 59.2902 28.576ZM88.8669 36.7911C83.9987 36.7911 80.3476 35.6552 77.9135 33.3833C75.5199 31.071 74.3232 27.4401 74.3232 22.4908C74.3232 19.7727 74.5666 17.3994 75.0534 15.371C75.5808 13.302 76.2096 11.8619 76.9398 11.0505C77.8729 9.99571 79.5768 9.1235 82.0514 8.43384C84.5667 7.74417 86.9196 7.39934 89.1103 7.39934C94.3436 7.39934 98.0759 8.51497 100.307 10.7462C102.538 12.9775 103.654 16.5475 103.654 21.4563C103.654 26.7301 102.457 30.6044 100.064 33.0791C97.6702 35.5537 93.9379 36.7911 88.8669 36.7911ZM89.0495 29.6713C90.6316 29.6713 91.6661 29.1237 92.1529 28.0283C92.6398 26.8924 92.8832 24.9046 92.8832 22.0648C92.8832 20.0769 92.7817 18.5556 92.5789 17.5009C92.3761 16.4055 91.9907 15.6144 91.4227 15.1276C90.8953 14.6002 90.0637 14.3365 88.9278 14.3365C87.305 14.3365 86.372 14.4785 86.1285 14.7625C85.804 15.0465 85.5403 15.939 85.3375 17.44C85.1346 18.941 85.0332 20.5029 85.0332 22.1256C85.0332 24.8843 85.2969 26.8316 85.8243 27.9675C86.3922 29.1034 87.4673 29.6713 89.0495 29.6713ZM124.969 7.39934C125.496 7.39934 126.044 7.4602 126.612 7.5819C127.221 7.70361 127.667 7.84559 127.951 8.00787C127.951 8.90037 127.849 10.3811 127.647 12.4501C127.444 14.4785 127.261 15.9187 127.099 16.7706C126.693 16.7301 125.943 16.7098 124.847 16.7098C122.292 16.7098 120.02 16.8518 118.032 17.1357V36H107.626V8.00787H116.328L117.545 12.511H117.606C118.782 10.9694 120.04 9.73202 121.379 8.79895C122.718 7.86588 123.914 7.39934 124.969 7.39934ZM143.584 24.4989C143.584 25.2291 143.604 25.9999 143.645 26.8113C143.686 27.5821 143.807 28.0689 144.01 28.2717C144.294 28.5557 145.288 28.6977 146.992 28.6977L149.061 28.6369C149.426 30.5841 149.609 32.8357 149.609 35.3915C148.838 35.6755 147.702 35.9391 146.201 36.1826C144.74 36.426 143.341 36.5477 142.002 36.5477C139.203 36.5477 137.032 35.9391 135.491 34.7221C133.99 33.4645 133.239 31.5375 133.239 28.9411V13.9714H128.675V8.43384L133.239 8.00787L135.978 1.3141L143.584 0.88813V8.00787H150.035V13.9714H143.584V24.4989Z" fill="black"/>
<path d="M53.8626 59.6384C52.9498 59.6384 52.1384 59.4609 51.4285 59.1059C50.7312 58.7509 50.129 58.3009 49.6219 57.7557L50.1734 57.1852C50.6171 57.6923 51.1559 58.098 51.7898 58.4023C52.4363 58.6939 53.1273 58.8397 53.8626 58.8397C54.8261 58.8397 55.5867 58.6115 56.1445 58.1551C56.7023 57.686 56.9812 57.0775 56.9812 56.3295C56.9812 55.8097 56.8798 55.3914 56.677 55.0744C56.4741 54.7575 56.2016 54.4976 55.8593 54.2947C55.517 54.0919 55.143 53.8954 54.7373 53.7052L52.8357 52.8495C52.4553 52.6847 52.0687 52.4755 51.6757 52.222C51.2953 51.9684 50.9657 51.6451 50.6868 51.2521C50.4206 50.8464 50.2875 50.3393 50.2875 49.7308C50.2875 49.1223 50.4459 48.5898 50.7629 48.1334C51.0798 47.6644 51.5109 47.3031 52.056 47.0495C52.6011 46.7833 53.2287 46.6502 53.9386 46.6502C54.6993 46.6502 55.3775 46.7959 55.9734 47.0875C56.5692 47.3791 57.051 47.7278 57.4186 48.1334L56.9432 48.7039C56.5629 48.3236 56.1192 48.0193 55.6121 47.7911C55.1176 47.5629 54.5598 47.4488 53.9386 47.4488C53.1146 47.4488 52.4427 47.6517 51.9229 48.0574C51.4158 48.4631 51.1622 49.0082 51.1622 49.6928C51.1622 50.1745 51.2763 50.5675 51.5045 50.8718C51.7454 51.1761 52.037 51.4233 52.3793 51.6134C52.7216 51.8036 53.0385 51.9684 53.3301 52.1079L55.2317 52.9446C55.7135 53.1601 56.1572 53.4073 56.5629 53.6862C56.9686 53.9525 57.2855 54.2884 57.5137 54.6941C57.7546 55.0998 57.875 55.6259 57.875 56.2725C57.875 56.9063 57.7102 57.4832 57.3806 58.0029C57.0637 58.51 56.6009 58.9094 55.9924 59.201C55.3965 59.4926 54.6866 59.6384 53.8626 59.6384ZM60.5085 59.4102V46.8784H67.3734V47.639H61.3832V52.3741H66.4036V53.1347H61.3832V58.6495H67.5636V59.4102H60.5085ZM70.2953 59.4102V46.8784H71.2461L76.4946 55.6829C76.7355 56.1013 76.9763 56.526 77.2172 56.957C77.4581 57.3754 77.6863 57.7938 77.9018 58.2121H77.9779C77.9652 57.6036 77.9398 56.9951 77.9018 56.3865C77.8765 55.778 77.8638 55.1695 77.8638 54.561V46.8784H78.7005V59.4102H77.7497L72.5012 50.6056C72.2603 50.1872 72.0194 49.7625 71.7785 49.3315C71.5377 48.9004 71.3095 48.4821 71.0939 48.0764H71.0179C71.0432 48.6596 71.0686 49.2427 71.0939 49.8259C71.1193 50.4091 71.132 51.0112 71.132 51.6325V59.4102H70.2953ZM85.6556 59.6384C84.7428 59.6384 83.9314 59.4609 83.2215 59.1059C82.5242 58.7509 81.922 58.3009 81.4149 57.7557L81.9664 57.1852C82.4101 57.6923 82.9489 58.098 83.5828 58.4023C84.2294 58.6939 84.9203 58.8397 85.6556 58.8397C86.6191 58.8397 87.3797 58.6115 87.9376 58.1551C88.4954 57.686 88.7743 57.0775 88.7743 56.3295C88.7743 55.8097 88.6729 55.3914 88.47 55.0744C88.2672 54.7575 87.9946 54.4976 87.6523 54.2947C87.31 54.0919 86.936 53.8954 86.5303 53.7052L84.6287 52.8495C84.2484 52.6847 83.8617 52.4755 83.4687 52.222C83.0884 51.9684 82.7588 51.6451 82.4799 51.2521C82.2136 50.8464 82.0805 50.3393 82.0805 49.7308C82.0805 49.1223 82.239 48.5898 82.5559 48.1334C82.8729 47.6644 83.3039 47.3031 83.849 47.0495C84.3942 46.7833 85.0217 46.6502 85.7317 46.6502C86.4923 46.6502 87.1706 46.7959 87.7664 47.0875C88.3623 47.3791 88.844 47.7278 89.2117 48.1334L88.7363 48.7039C88.3559 48.3236 87.9122 48.0193 87.4051 47.7911C86.9107 47.5629 86.3529 47.4488 85.7317 47.4488C84.9076 47.4488 84.2357 47.6517 83.7159 48.0574C83.2088 48.4631 82.9553 49.0082 82.9553 49.6928C82.9553 50.1745 83.0694 50.5675 83.2976 50.8718C83.5384 51.1761 83.83 51.4233 84.1723 51.6134C84.5146 51.8036 84.8316 51.9684 85.1231 52.1079L87.0248 52.9446C87.5065 53.1601 87.9502 53.4073 88.3559 53.6862C88.7616 53.9525 89.0785 54.2884 89.3067 54.6941C89.5476 55.0998 89.6681 55.6259 89.6681 56.2725C89.6681 56.9063 89.5032 57.4832 89.1736 58.0029C88.8567 58.51 88.394 58.9094 87.7854 59.201C87.1896 59.4926 86.4796 59.6384 85.6556 59.6384ZM92.3015 59.4102V46.8784H99.1664V47.639H93.1763V52.3741H98.1966V53.1347H93.1763V58.6495H99.3566V59.4102H92.3015ZM102.088 59.4102V46.8784H102.963V59.4102H102.088Z" fill="black"/>
<line y1="52.4924" x2="44.6885" y2="52.4924" stroke="black" stroke-width="0.95082"/>
<line x1="108.869" y1="52.4924" x2="153.558" y2="52.4924" stroke="black" stroke-width="0.95082"/>
</svg>
